<?xml version="1.0" encoding="UTF-8" standalone="no"?>
<!-- Created with Inkscape (http://www.inkscape.org/) -->

<svg
   xmlns:dc="http://purl.org/dc/elements/1.1/"
   xmlns:cc="http://creativecommons.org/ns#"
   xmlns:rdf="http://www.w3.org/1999/02/22-rdf-syntax-ns#"
   xmlns:svg="http://www.w3.org/2000/svg"
   xmlns="http://www.w3.org/2000/svg"
   xmlns:sodipodi="http://sodipodi.sourceforge.net/DTD/sodipodi-0.dtd"
   xmlns:inkscape="http://www.inkscape.org/namespaces/inkscape"
   width="297mm"
   height="210mm"
   viewBox="0 0 1052.3622 744.09448"
   id="svg2"
   version="1.1"
   inkscape:version="0.91 r13725"
   sodipodi:docname="GAN.svg">
  <defs
     id="defs4" />
  <sodipodi:namedview
     id="base"
     pagecolor="#ffffff"
     bordercolor="#666666"
     borderopacity="1.0"
     inkscape:pageopacity="0.0"
     inkscape:pageshadow="2"
     inkscape:zoom="0.7"
     inkscape:cx="517.11987"
     inkscape:cy="348.07143"
     inkscape:document-units="px"
     inkscape:current-layer="layer1"
     showgrid="false"
     inkscape:window-width="1356"
     inkscape:window-height="723"
     inkscape:window-x="4"
     inkscape:window-y="1"
     inkscape:window-maximized="1" />
  <metadata
     id="metadata7">
    <rdf:RDF>
      <cc:Work
         rdf:about="">
        <dc:format>image/svg+xml</dc:format>
        <dc:type
           rdf:resource="http://purl.org/dc/dcmitype/StillImage" />
        <dc:title />
      </cc:Work>
    </rdf:RDF>
  </metadata>
  <g
     inkscape:label="Layer 1"
     inkscape:groupmode="layer"
     id="layer1"
     transform="translate(0,-308.26772)">
    <path
       style="opacity:1;fill:#000000;fill-opacity:1;stroke:none;stroke-width:13.5909996;stroke-miterlimit:2.29999995;stroke-dasharray:none;stroke-opacity:1"
       id="path4174"
       d="m 150.84499,424.28279 c 11.58914,0.89989 23.1813,-0.46682 34.71011,-1.66948 10.93415,-1.168 21.82083,-2.8132 32.72959,-4.23184 0,0 -7.93548,6.63273 -7.93548,6.63273 l 0,0 c -10.39627,0.79408 -20.77735,1.81717 -31.15159,2.91523 -12.22546,1.33231 -24.4394,2.93465 -36.731,3.22227 0,0 8.37837,-6.86891 8.37837,-6.86891 z"
       inkscape:connector-curvature="0" />
    <path
       style="opacity:1;fill:#000000;fill-opacity:1;stroke:none;stroke-width:13.5909996;stroke-miterlimit:2.29999995;stroke-dasharray:none;stroke-opacity:1"
       id="path4176"
       d="m 191.44979,407.88668 c 5.44869,1.27834 10.95954,2.18779 16.44367,3.24855 2.86578,0.59088 5.71933,1.25395 8.58178,1.86443 1.53255,0.32685 2.94093,0.61801 4.39095,1.2612 0.23633,0.20242 0.53901,0.33285 0.70899,0.60726 1.39893,2.25833 -2.04969,8.23798 -2.95489,10.06828 -1.87498,3.66643 -4.12327,7.05355 -6.35921,10.44184 0,0 -8.70548,4.23321 -8.70548,4.23321 l 0,0 c 2.20719,-3.29641 4.43133,-6.59031 6.22147,-10.20784 1.12146,-2.3323 2.15344,-4.52848 2.85596,-7.06096 0.0378,-0.1363 0.33611,-1.10626 0.24552,-1.26561 -0.10931,-0.19228 -0.32682,-0.2697 -0.49023,-0.40454 -1.31816,-0.59985 -2.63847,-0.946 -4.02277,-1.31653 -2.74506,-0.73474 -5.48559,-1.49862 -8.26493,-2.0565 -5.68396,-1.0924 -11.39324,-2.01084 -17.12708,-2.70213 0,0 8.47625,-6.71066 8.47625,-6.71066 z"
       inkscape:connector-curvature="0" />
    <ellipse
       style="opacity:1;fill:#a0a0a0;fill-opacity:1;stroke:none;stroke-width:13.5909996;stroke-miterlimit:2.29999995;stroke-dasharray:none;stroke-opacity:1"
       id="path4178"
       cx="258.57144"
       cy="716.64795"
       rx="38.57143"
       ry="35.714287" />
    <ellipse
       style="opacity:1;fill:#e3a130;fill-opacity:1;stroke:none;stroke-width:13.5909996;stroke-miterlimit:2.29999995;stroke-dasharray:none;stroke-opacity:1"
       id="path4178-3"
       cx="45.714249"
       cy="845.21936"
       rx="38.57143"
       ry="35.714287" />
    <text
       xml:space="preserve"
       style="font-style:normal;font-weight:normal;font-size:13.75px;line-height:125%;font-family:sans-serif;letter-spacing:0px;word-spacing:0px;fill:#000000;fill-opacity:1;stroke:none;stroke-width:1px;stroke-linecap:butt;stroke-linejoin:miter;stroke-opacity:1"
       x="249.02824"
       y="334.91684"
       id="text4195"
       sodipodi:linespacing="125%"><tspan
         sodipodi:role="line"
         id="tspan4197"
         x="249.02824"
         y="334.91684">Generative</tspan></text>
    <text
       xml:space="preserve"
       style="font-style:normal;font-weight:normal;font-size:13.75px;line-height:125%;font-family:sans-serif;letter-spacing:0px;word-spacing:0px;fill:#000000;fill-opacity:1;stroke:none;stroke-width:1px;stroke-linecap:butt;stroke-linejoin:miter;stroke-opacity:1"
       x="722.45679"
       y="341.77396"
       id="text4195-6"
       sodipodi:linespacing="125%"><tspan
         sodipodi:role="line"
         id="tspan4197-4"
         x="722.45679"
         y="341.77396">Discriminative</tspan></text>
    <text
       xml:space="preserve"
       style="font-style:normal;font-weight:normal;font-size:13.75px;line-height:125%;font-family:sans-serif;letter-spacing:0px;word-spacing:0px;fill:#000000;fill-opacity:1;stroke:none;stroke-width:1px;stroke-linecap:butt;stroke-linejoin:miter;stroke-opacity:1"
       x="241.88538"
       y="658.91681"
       id="text4195-0"
       sodipodi:linespacing="125%"><tspan
         sodipodi:role="line"
         id="tspan4197-5"
         x="241.88538"
         y="658.91681">Noise</tspan></text>
    <text
       xml:space="preserve"
       style="font-style:normal;font-weight:normal;font-size:13.75px;line-height:125%;font-family:sans-serif;letter-spacing:0px;word-spacing:0px;fill:#000000;fill-opacity:1;stroke:none;stroke-width:1px;stroke-linecap:butt;stroke-linejoin:miter;stroke-opacity:1"
       x="16.171068"
       y="796.05963"
       id="text4195-1"
       sodipodi:linespacing="125%"><tspan
         sodipodi:role="line"
         id="tspan4197-57"
         x="16.171068"
         y="796.05963">Dataset</tspan></text>
    <ellipse
       style="opacity:1;fill:#bbbbbb;fill-opacity:0.5625;stroke:none;stroke-width:13.5909996;stroke-miterlimit:2.29999995;stroke-dasharray:none;stroke-opacity:1"
       id="path4343"
       cx="977.85718"
       cy="399.50507"
       rx="43.57143"
       ry="14.285714" />
    <text
       xml:space="preserve"
       style="font-style:normal;font-weight:normal;font-size:13.75px;line-height:125%;font-family:sans-serif;letter-spacing:0px;word-spacing:0px;fill:#000000;fill-opacity:1;stroke:none;stroke-width:1px;stroke-linecap:butt;stroke-linejoin:miter;stroke-opacity:1"
       x="963.16107"
       y="403.20255"
       id="text4195-6-52"
       sodipodi:linespacing="125%"><tspan
         sodipodi:role="line"
         id="tspan4197-4-4"
         x="963.16107"
         y="403.20255">True</tspan></text>
    <ellipse
       style="opacity:1;fill:#575757;fill-opacity:0.5625;stroke:none;stroke-width:13.5909996;stroke-miterlimit:2.29999995;stroke-dasharray:none;stroke-opacity:1"
       id="path4343-5"
       cx="975.71429"
       cy="450.93365"
       rx="43.57143"
       ry="14.285714" />
    <text
       xml:space="preserve"
       style="font-style:normal;font-weight:normal;font-size:13.75px;line-height:125%;font-family:sans-serif;letter-spacing:0px;word-spacing:0px;fill:#000000;fill-opacity:1;stroke:none;stroke-width:1px;stroke-linecap:butt;stroke-linejoin:miter;stroke-opacity:1"
       x="961.01819"
       y="454.63113"
       id="text4195-6-52-9"
       sodipodi:linespacing="125%"><tspan
         sodipodi:role="line"
         id="tspan4197-4-4-6"
         x="961.01819"
         y="454.63113">False</tspan></text>
    <path
       style="fill:#33d575;fill-opacity:0.62352941;fill-rule:evenodd;stroke:none;stroke-width:1px;stroke-linecap:butt;stroke-linejoin:miter;stroke-opacity:1"
       d="m 745,763.64792 0,215.71429 101.42858,-114.42237 z"
       id="path4537"
       inkscape:connector-curvature="0" />
    <path
       style="fill:#250dc2;fill-opacity:0.61960784;fill-rule:evenodd;stroke:none;stroke-width:1px;stroke-linecap:butt;stroke-linejoin:miter;stroke-opacity:1"
       d="m 358.57143,758.79077 0,164.28572 -94.28572,-87.14286 z"
       id="path4537-5"
       inkscape:connector-curvature="0" />
    <path
       style="opacity:1;fill:#000000;fill-opacity:1;stroke:none;stroke-width:13.5909996;stroke-miterlimit:2.29999995;stroke-dasharray:none;stroke-opacity:1"
       id="path4174-0"
       d="m 847.23065,432.89593 c 11.58914,0.89989 23.1813,-0.46682 34.71011,-1.66948 10.93415,-1.168 21.82083,-2.8132 32.72959,-4.23184 0,0 -7.93548,6.63273 -7.93548,6.63273 l 0,0 c -10.39627,0.79408 -20.77735,1.81717 -31.15159,2.91523 -12.22546,1.33231 -24.4394,2.93465 -36.731,3.22227 0,0 8.37837,-6.86891 8.37837,-6.86891 z"
       inkscape:connector-curvature="0" />
    <path
       style="opacity:1;fill:#000000;fill-opacity:1;stroke:none;stroke-width:13.5909996;stroke-miterlimit:2.29999995;stroke-dasharray:none;stroke-opacity:1"
       id="path4176-6"
       d="m 887.83545,416.49982 c 5.44869,1.27834 10.95954,2.18779 16.44367,3.24855 2.86578,0.59088 5.71933,1.25395 8.58178,1.86443 1.53255,0.32685 2.94093,0.61801 4.39095,1.2612 0.23633,0.20242 0.53901,0.33285 0.70899,0.60726 1.39893,2.25833 -2.04969,8.23798 -2.95489,10.06828 -1.87498,3.66643 -4.12327,7.05355 -6.35921,10.44184 0,0 -8.70548,4.23321 -8.70548,4.23321 l 0,0 c 2.20719,-3.29641 4.43133,-6.59031 6.22147,-10.20784 1.12146,-2.3323 2.15344,-4.52848 2.85596,-7.06096 0.0378,-0.1363 0.33611,-1.10626 0.24552,-1.26561 -0.10931,-0.19228 -0.32682,-0.2697 -0.49023,-0.40454 -1.31816,-0.59985 -2.63847,-0.946 -4.02277,-1.31653 -2.74506,-0.73474 -5.48559,-1.49862 -8.26493,-2.0565 -5.68396,-1.0924 -11.39324,-2.01084 -17.12708,-2.70213 0,0 8.47625,-6.71066 8.47625,-6.71066 z"
       inkscape:connector-curvature="0" />
    <ellipse
       style="opacity:1;fill:#e3307a;fill-opacity:0.72916669;stroke:none;stroke-width:13.5909996;stroke-miterlimit:2.29999995;stroke-dasharray:none;stroke-opacity:1"
       id="path4178-3-4"
       cx="510"
       cy="411.23969"
       rx="38.57143"
       ry="35.714287" />
    <text
       xml:space="preserve"
       style="font-style:normal;font-weight:normal;font-size:13.75px;line-height:125%;font-family:sans-serif;letter-spacing:0px;word-spacing:0px;fill:#000000;fill-opacity:1;stroke:none;stroke-width:1px;stroke-linecap:butt;stroke-linejoin:miter;stroke-opacity:1"
       x="476.07907"
       y="362.07996"
       id="text4195-1-5"
       sodipodi:linespacing="125%"><tspan
         sodipodi:role="line"
         id="tspan4197-57-8"
         x="476.07907"
         y="362.07996">Generated</tspan></text>
    <ellipse
       style="opacity:1;fill:#e3a130;fill-opacity:1;stroke:none;stroke-width:13.5909996;stroke-miterlimit:2.29999995;stroke-dasharray:none;stroke-opacity:1"
       id="path4178-3-9"
       cx="507.14285"
       cy="552.66827"
       rx="38.57143"
       ry="35.714287" />
    <text
       xml:space="preserve"
       style="font-style:normal;font-weight:normal;font-size:13.75px;line-height:125%;font-family:sans-serif;letter-spacing:0px;word-spacing:0px;fill:#000000;fill-opacity:1;stroke:none;stroke-width:1px;stroke-linecap:butt;stroke-linejoin:miter;stroke-opacity:1"
       x="477.22192"
       y="503.50854"
       id="text4195-1-8"
       sodipodi:linespacing="125%"><tspan
         sodipodi:role="line"
         id="tspan4197-57-5"
         x="477.22192"
         y="503.50854">Dataset</tspan></text>
    <path
       style="opacity:1;fill:#000000;fill-opacity:1;stroke:none;stroke-width:13.5909996;stroke-miterlimit:2.29999995;stroke-dasharray:none;stroke-opacity:1"
       id="path4174-5"
       d="m 588.21844,409.20433 c 18.88356,0.69728 37.77205,-0.36171 56.55731,-1.29359 17.81632,-0.90503 35.55529,-2.17981 53.33023,-3.27904 0,0 -12.93023,5.13936 -12.93023,5.13936 l 0,0 c -16.93988,0.6153 -33.85501,1.40804 -50.759,2.25887 -19.9204,1.03234 -39.82203,2.27391 -59.85019,2.49677 0,0 13.65188,-5.32237 13.65188,-5.32237 z"
       inkscape:connector-curvature="0" />
    <path
       style="opacity:1;fill:#000000;fill-opacity:1;stroke:none;stroke-width:13.5909996;stroke-miterlimit:2.29999995;stroke-dasharray:none;stroke-opacity:1"
       id="path4176-4"
       d="m 676.00399,397.92839 c 5.00959,0.93296 10.07635,1.59669 15.11853,2.37086 2.63484,0.43123 5.25844,0.91515 7.89021,1.36069 1.40906,0.23854 2.70394,0.45103 4.0371,0.92045 0.21729,0.14773 0.49558,0.24292 0.65186,0.44319 1.2862,1.64817 -1.88452,6.01223 -2.71677,7.34802 -1.72388,2.67583 -3.791,5.14782 -5.84674,7.62065 0,0 -8.00394,3.08948 -8.00394,3.08948 l 0,0 c 2.02932,-2.40578 4.07423,-4.80973 5.7201,-7.44988 1.03109,-1.70216 1.9799,-3.30496 2.62581,-5.15321 0.0347,-0.0995 0.30903,-0.80738 0.22574,-0.92367 -0.1005,-0.14033 -0.30049,-0.19684 -0.45073,-0.29525 -1.21193,-0.43778 -2.42585,-0.69041 -3.69859,-0.96082 -2.52385,-0.53623 -5.04353,-1.09373 -7.5989,-1.50088 -5.22591,-0.79725 -10.47509,-1.46755 -15.74688,-1.97206 0,0 7.7932,-4.89757 7.7932,-4.89757 z"
       inkscape:connector-curvature="0" />
    <path
       style="opacity:1;fill:#000000;fill-opacity:1;stroke:none;stroke-width:13.5909996;stroke-miterlimit:2.29999995;stroke-dasharray:none;stroke-opacity:1"
       id="path4643"
       d="m 554.88931,559.11344 c 7.38477,0.34043 14.78976,0.48653 22.17322,0.0195 2.83956,-0.17963 5.66823,-0.47747 8.50235,-0.71621 16.37921,-1.77824 32.27319,-5.77454 48.09659,-9.80344 1.7584,-0.46138 3.51305,-0.93433 5.27519,-1.38414 7.00011,-1.78693 1.95619,-0.4128 8.08029,-2.05131 0.90495,-0.24211 1.83062,-0.43268 2.70931,-0.74273 0.66112,-0.2333 2.51358,-1.18781 1.89129,-0.88067 -2.27578,1.12325 -4.56811,2.21945 -6.85216,3.32917 0.26284,-0.31925 0.62413,-0.58949 0.78849,-0.95775 0.82447,-1.84721 -0.20742,-4.24685 -0.77593,-5.98744 -2.94379,-9.01305 1.13437,4.04949 -2.15321,-6.6046 -2.38777,-7.70132 -4.23202,-15.5233 -6.13583,-23.32812 -1.52544,-5.51984 -3.20874,-11.00265 -4.9638,-16.46707 -1.05816,-3.10983 -2.35765,-6.14809 -3.2424,-9.30397 -0.1001,-0.55051 -0.27986,-1.11228 -0.0894,-1.67437 0.0952,-0.28086 0.19165,-0.61663 0.46819,-0.77436 7.88225,-4.49575 7.52496,-4.59699 14.15393,-5.79885 8.83673,-1.5208 17.74227,-2.60059 26.6945,-3.38622 8.00517,-0.65398 16.0503,-0.66482 24.08137,-0.73603 1.12826,-0.0135 2.25652,-0.0269 3.38479,-0.0405 0,0 -7.35383,4.78473 -7.35383,4.78473 l 0,0 c -1.0939,-0.008 -2.1878,-0.0154 -3.28171,-0.0231 -7.97407,0.0216 -15.95499,0.11763 -23.90641,0.70801 -9.04108,0.74156 -18.03891,1.86363 -26.90072,3.6614 -1.03374,0.24458 -2.07785,0.45644 -3.10123,0.73372 -0.65403,0.17722 -2.4863,0.97856 -1.92604,0.6284 2.28778,-1.42985 4.77739,-2.58202 7.15152,-3.89429 0.21905,-0.12109 -0.51242,0.14865 -0.68474,0.31985 -0.3605,0.35814 -0.20964,1.01546 -0.18826,1.40269 0.69226,3.20756 1.88012,6.29017 2.88589,9.42529 1.66826,5.53118 3.1899,11.09459 4.67706,16.66684 1.73664,7.81791 3.45831,15.65557 6.0503,23.2911 2.15343,5.90368 0.42526,1.25183 2.43492,6.46322 0.73768,1.91292 1.97735,4.3415 1.48627,6.45259 -0.107,0.46 -0.45909,0.84513 -0.68863,1.2677 -3.13011,1.69823 -6.21644,3.46287 -9.39033,5.0947 -1.23881,0.63691 -3.05159,0.97527 -4.36968,1.28869 -4.2628,1.0136 -8.54532,1.96007 -12.78753,3.0426 -15.72852,3.77698 -31.5026,7.50514 -47.68958,9.37653 -2.9154,0.27965 -5.8256,0.60685 -8.74621,0.83895 -7.88942,0.627 -15.79991,0.61992 -23.70572,0.92754 0,0 7.94785,-5.16803 7.94785,-5.16803 z"
       inkscape:connector-curvature="0" />
    <path
       style="opacity:1;fill:#000000;fill-opacity:1;stroke:none;stroke-width:13.5909996;stroke-miterlimit:2.29999995;stroke-dasharray:none;stroke-opacity:1"
       id="path4645"
       d="m 693.87591,459.83641 c 4.30658,1.41466 8.72821,2.16259 13.07015,3.37928 1.2128,0.49677 2.94228,1.29943 2.45146,3.37313 -0.44889,1.89658 -2.55918,3.30377 -3.72001,4.38578 -2.95856,2.49246 -5.07536,5.58177 -7.08965,9.15289 -0.25463,0.43689 -0.50927,0.87378 -0.7639,1.31068 0,0 -8.83265,4.68354 -8.83265,4.68354 l 0,0 c 0.26646,-0.43473 0.53292,-0.86947 0.79938,-1.3042 0.5882,-1.00917 1.12737,-2.06085 1.72457,-3.06205 1.49331,-2.50351 3.39183,-4.61232 5.38749,-6.49693 1.23207,-1.12877 2.56392,-2.20787 3.71761,-3.4616 0.14888,-0.16181 0.40826,-0.30015 0.39939,-0.54394 -0.0311,-0.85305 -1.59881,-1.37443 -1.7993,-1.48332 -4.43193,-1.34546 -8.95572,-2.10991 -13.43088,-3.20206 0,0 8.08634,-6.7312 8.08634,-6.7312 z"
       inkscape:connector-curvature="0" />
    <path
       style="opacity:1;fill:#000000;fill-opacity:1;stroke:none;stroke-width:13.5909996;stroke-miterlimit:2.29999995;stroke-dasharray:none;stroke-opacity:1"
       id="path4174-6"
       d="m 378.65922,415.75308 c 11.58914,0.89989 23.1813,-0.46682 34.71011,-1.66948 10.93415,-1.168 21.82083,-2.8132 32.72959,-4.23184 0,0 -7.93548,6.63273 -7.93548,6.63273 l 0,0 c -10.39627,0.79408 -20.77735,1.81717 -31.15159,2.91523 -12.22546,1.33231 -24.4394,2.93465 -36.731,3.22227 0,0 8.37837,-6.86891 8.37837,-6.86891 z"
       inkscape:connector-curvature="0" />
    <path
       style="opacity:1;fill:#000000;fill-opacity:1;stroke:none;stroke-width:13.5909996;stroke-miterlimit:2.29999995;stroke-dasharray:none;stroke-opacity:1"
       id="path4176-8"
       d="m 419.26402,399.35697 c 5.44869,1.27834 10.95954,2.18779 16.44367,3.24855 2.86578,0.59088 5.71933,1.25395 8.58178,1.86443 1.53255,0.32685 2.94093,0.61801 4.39095,1.2612 0.23633,0.20242 0.53901,0.33285 0.70899,0.60726 1.39893,2.25833 -2.04969,8.23798 -2.95489,10.06828 -1.87498,3.66643 -4.12327,7.05355 -6.35921,10.44184 0,0 -8.70548,4.23321 -8.70548,4.23321 l 0,0 c 2.20719,-3.29641 4.43133,-6.59031 6.22147,-10.20784 1.12146,-2.3323 2.15344,-4.52848 2.85596,-7.06096 0.0378,-0.1363 0.33611,-1.10626 0.24552,-1.26561 -0.10931,-0.19228 -0.32682,-0.2697 -0.49023,-0.40454 -1.31816,-0.59985 -2.63847,-0.946 -4.02277,-1.31653 -2.74506,-0.73474 -5.48559,-1.49862 -8.26493,-2.0565 -5.68396,-1.0924 -11.39324,-2.01084 -17.12708,-2.70213 0,0 8.47625,-6.71066 8.47625,-6.71066 z"
       inkscape:connector-curvature="0" />
    <ellipse
       style="opacity:1;fill:#e3307a;fill-opacity:0.72916667;stroke:none;stroke-width:13.5909996;stroke-miterlimit:2.29999995;stroke-dasharray:none;stroke-opacity:1"
       id="path4178-3-4-4"
       cx="496.97226"
       cy="826.45117"
       rx="38.57143"
       ry="35.714287" />
    <text
       xml:space="preserve"
       style="font-style:normal;font-weight:normal;font-size:13.75px;line-height:125%;font-family:sans-serif;letter-spacing:0px;word-spacing:0px;fill:#000000;fill-opacity:1;stroke:none;stroke-width:1px;stroke-linecap:butt;stroke-linejoin:miter;stroke-opacity:1"
       x="461.62277"
       y="785.29144"
       id="text4195-1-5-5"
       sodipodi:linespacing="125%"><tspan
         sodipodi:role="line"
         id="tspan4197-57-8-6"
         x="461.62277"
         y="785.29144">Generated</tspan></text>
    <path
       style="opacity:1;fill:#000000;fill-opacity:1;stroke:none;stroke-width:13.5909996;stroke-miterlimit:2.29999995;stroke-dasharray:none;stroke-opacity:1"
       id="path4174-2"
       d="m 91.894958,839.30365 c 11.589142,0.89989 23.181302,-0.46682 34.710112,-1.66948 10.93415,-1.168 21.82083,-2.8132 32.72959,-4.23184 0,0 -7.93548,6.63273 -7.93548,6.63273 l 0,0 c -10.39627,0.79408 -20.77735,1.81717 -31.15159,2.91523 -12.22546,1.33231 -24.439402,2.93465 -36.731002,3.22227 0,0 8.37837,-6.86891 8.37837,-6.86891 z"
       inkscape:connector-curvature="0" />
    <path
       style="opacity:1;fill:#000000;fill-opacity:1;stroke:none;stroke-width:13.5909996;stroke-miterlimit:2.29999995;stroke-dasharray:none;stroke-opacity:1"
       id="path4176-84"
       d="m 132.49976,822.90754 c 5.44869,1.27834 10.95954,2.18779 16.44367,3.24855 2.86578,0.59088 5.71933,1.25395 8.58178,1.86443 1.53255,0.32685 2.94093,0.61801 4.39095,1.2612 0.23633,0.20242 0.53901,0.33285 0.70899,0.60726 1.39893,2.25833 -2.04969,8.23798 -2.95489,10.06828 -1.87498,3.66643 -4.12327,7.05355 -6.35921,10.44184 0,0 -8.70548,4.23321 -8.70548,4.23321 l 0,0 c 2.20719,-3.29641 4.43133,-6.59031 6.22147,-10.20784 1.12146,-2.3323 2.15344,-4.52848 2.85596,-7.06096 0.0378,-0.1363 0.33611,-1.10626 0.24552,-1.26561 -0.10931,-0.19228 -0.32682,-0.2697 -0.49023,-0.40454 -1.31816,-0.59985 -2.63847,-0.946 -4.02277,-1.31653 -2.74506,-0.73474 -5.48559,-1.49862 -8.26493,-2.0565 -5.68396,-1.0924 -11.39324,-2.01084 -17.12708,-2.70213 0,0 8.47625,-6.71066 8.47625,-6.71066 z"
       inkscape:connector-curvature="0" />
    <path
       style="opacity:1;fill:#000000;fill-opacity:1;stroke:none;stroke-width:13.5909996;stroke-miterlimit:2.29999995;stroke-dasharray:none;stroke-opacity:1"
       id="path4174-6-1"
       d="m 371.13776,837.91679 c 11.58914,0.89989 23.1813,-0.46682 34.71011,-1.66948 10.93415,-1.168 21.82083,-2.8132 32.72959,-4.23184 0,0 -7.93548,6.63273 -7.93548,6.63273 l 0,0 c -10.39627,0.79408 -20.77735,1.81717 -31.15159,2.91523 -12.22546,1.33231 -24.4394,2.93465 -36.731,3.22227 0,0 8.37837,-6.86891 8.37837,-6.86891 z"
       inkscape:connector-curvature="0" />
    <path
       style="opacity:1;fill:#000000;fill-opacity:1;stroke:none;stroke-width:13.5909996;stroke-miterlimit:2.29999995;stroke-dasharray:none;stroke-opacity:1"
       id="path4176-8-3"
       d="m 411.74256,821.52068 c 5.44869,1.27834 10.95954,2.18779 16.44367,3.24855 2.86578,0.59088 5.71933,1.25395 8.58178,1.86443 1.53255,0.32685 2.94093,0.61801 4.39095,1.2612 0.23633,0.20242 0.53901,0.33285 0.70899,0.60726 1.39893,2.25833 -2.04969,8.23798 -2.95489,10.06828 -1.87498,3.66643 -4.12327,7.05355 -6.35921,10.44184 0,0 -8.70548,4.23321 -8.70548,4.23321 l 0,0 c 2.20719,-3.29641 4.43133,-6.59031 6.22147,-10.20784 1.12146,-2.3323 2.15344,-4.52848 2.85596,-7.06096 0.0378,-0.1363 0.33611,-1.10626 0.24552,-1.26561 -0.10931,-0.19228 -0.32682,-0.2697 -0.49023,-0.40454 -1.31816,-0.59985 -2.63847,-0.946 -4.02277,-1.31653 -2.74506,-0.73474 -5.48559,-1.49862 -8.26493,-2.0565 -5.68396,-1.0924 -11.39324,-2.01084 -17.12708,-2.70213 0,0 8.47625,-6.71066 8.47625,-6.71066 z"
       inkscape:connector-curvature="0" />
    <path
       style="fill:#250dc2;fill-opacity:0.61960784;fill-rule:evenodd;stroke:none;stroke-width:1px;stroke-linecap:butt;stroke-linejoin:miter;stroke-opacity:1"
       d="m 332.85715,343.07649 0,164.28572 -94.28572,-87.14286 z"
       id="path4537-5-0"
       inkscape:connector-curvature="0" />
    <path
       style="fill:#0d9fc2;fill-opacity:0.62352941;fill-rule:evenodd;stroke:none;stroke-width:1px;stroke-linecap:butt;stroke-linejoin:miter;stroke-opacity:1"
       d="m 732.85714,360.21935 0,164.28572 94.28572,-87.14286 z"
       id="path4537-3"
       inkscape:connector-curvature="0" />
    <path
       style="opacity:1;fill:#000000;fill-opacity:1;stroke:none;stroke-width:13.5909996;stroke-miterlimit:2.29999995;stroke-dasharray:none;stroke-opacity:1"
       id="path4174-6-1-5"
       d="m 584.3735,840.03879 c 11.58914,0.89989 23.1813,-0.46682 34.71011,-1.66948 10.93415,-1.168 21.82083,-2.8132 32.72959,-4.23184 0,0 -7.93548,6.63273 -7.93548,6.63273 l 0,0 c -10.39627,0.79408 -20.77735,1.81717 -31.15159,2.91523 -12.22546,1.33231 -24.4394,2.93465 -36.731,3.22227 0,0 8.37837,-6.86891 8.37837,-6.86891 z"
       inkscape:connector-curvature="0" />
    <path
       style="opacity:1;fill:#000000;fill-opacity:1;stroke:none;stroke-width:13.5909996;stroke-miterlimit:2.29999995;stroke-dasharray:none;stroke-opacity:1"
       id="path4176-8-3-8"
       d="m 624.9783,823.64268 c 5.44869,1.27834 10.95954,2.18779 16.44367,3.24855 2.86578,0.59088 5.71933,1.25395 8.58178,1.86443 1.53255,0.32685 2.94093,0.61801 4.39095,1.2612 0.23633,0.20242 0.53901,0.33285 0.70899,0.60726 1.39893,2.25833 -2.04969,8.23798 -2.95489,10.06828 -1.87498,3.66643 -4.12327,7.05355 -6.35921,10.44184 0,0 -8.70548,4.23321 -8.70548,4.23321 l 0,0 c 2.20719,-3.29641 4.43133,-6.59031 6.22147,-10.20784 1.12146,-2.3323 2.15344,-4.52848 2.85596,-7.06096 0.0378,-0.1363 0.33611,-1.10626 0.24552,-1.26561 -0.10931,-0.19228 -0.32682,-0.2697 -0.49023,-0.40454 -1.31816,-0.59985 -2.63847,-0.946 -4.02277,-1.31653 -2.74506,-0.73474 -5.48559,-1.49862 -8.26493,-2.0565 -5.68396,-1.0924 -11.39324,-2.01084 -17.12708,-2.70213 0,0 8.47625,-6.71066 8.47625,-6.71066 z"
       inkscape:connector-curvature="0" />
    <ellipse
       style="opacity:1;fill:#bbbbbb;fill-opacity:0.5625;stroke:none;stroke-width:13.5909996;stroke-miterlimit:2.29999995;stroke-dasharray:none;stroke-opacity:1"
       id="path4343-8"
       cx="997.7168"
       cy="828.07648"
       rx="43.57143"
       ry="14.285714" />
    <text
       xml:space="preserve"
       style="font-style:normal;font-weight:normal;font-size:13.75px;line-height:125%;font-family:sans-serif;letter-spacing:0px;word-spacing:0px;fill:#000000;fill-opacity:1;stroke:none;stroke-width:1px;stroke-linecap:butt;stroke-linejoin:miter;stroke-opacity:1"
       x="983.02063"
       y="831.77393"
       id="text4195-6-52-7"
       sodipodi:linespacing="125%"><tspan
         sodipodi:role="line"
         id="tspan4197-4-4-2"
         x="983.02063"
         y="831.77393">True</tspan></text>
    <ellipse
       style="opacity:1;fill:#575757;fill-opacity:0.5625;stroke:none;stroke-width:13.5909996;stroke-miterlimit:2.29999995;stroke-dasharray:none;stroke-opacity:1"
       id="path4343-5-0"
       cx="995.57385"
       cy="879.50507"
       rx="43.57143"
       ry="14.285714" />
    <text
       xml:space="preserve"
       style="font-style:normal;font-weight:normal;font-size:13.75px;line-height:125%;font-family:sans-serif;letter-spacing:0px;word-spacing:0px;fill:#000000;fill-opacity:1;stroke:none;stroke-width:1px;stroke-linecap:butt;stroke-linejoin:miter;stroke-opacity:1"
       x="980.87775"
       y="883.20251"
       id="text4195-6-52-9-3"
       sodipodi:linespacing="125%"><tspan
         sodipodi:role="line"
         id="tspan4197-4-4-6-7"
         x="980.87775"
         y="883.20251">False</tspan></text>
    <path
       style="opacity:1;fill:#000000;fill-opacity:1;stroke:none;stroke-width:13.5909996;stroke-miterlimit:2.29999995;stroke-dasharray:none;stroke-opacity:1"
       id="path4174-0-6"
       d="m 867.09021,861.46735 c 11.58914,0.89989 23.1813,-0.46682 34.71011,-1.66948 10.93415,-1.168 21.82083,-2.8132 32.72959,-4.23184 0,0 -7.93548,6.63273 -7.93548,6.63273 l 0,0 c -10.39627,0.79408 -20.77735,1.81717 -31.15159,2.91523 -12.22546,1.33231 -24.4394,2.93465 -36.731,3.22227 0,0 8.37837,-6.86891 8.37837,-6.86891 z"
       inkscape:connector-curvature="0" />
    <path
       style="opacity:1;fill:#000000;fill-opacity:1;stroke:none;stroke-width:13.5909996;stroke-miterlimit:2.29999995;stroke-dasharray:none;stroke-opacity:1"
       id="path4176-6-1"
       d="m 907.69501,845.07124 c 5.44869,1.27834 10.95954,2.18779 16.44367,3.24855 2.86578,0.59088 5.71933,1.25395 8.58178,1.86443 1.53255,0.32685 2.94093,0.61801 4.39095,1.2612 0.23633,0.20242 0.53901,0.33285 0.70899,0.60726 1.39893,2.25833 -2.04969,8.23798 -2.95489,10.06828 -1.87498,3.66643 -4.12327,7.05355 -6.35921,10.44184 0,0 -8.70548,4.23321 -8.70548,4.23321 l 0,0 c 2.20719,-3.29641 4.43133,-6.59031 6.22147,-10.20784 1.12146,-2.3323 2.15344,-4.52848 2.85596,-7.06096 0.0378,-0.1363 0.33611,-1.10626 0.24552,-1.26561 -0.10931,-0.19228 -0.32682,-0.2697 -0.49023,-0.40454 -1.31816,-0.59985 -2.63847,-0.946 -4.02277,-1.31653 -2.74506,-0.73474 -5.48559,-1.49862 -8.26493,-2.0565 -5.68396,-1.0924 -11.39324,-2.01084 -17.12708,-2.70213 0,0 8.47625,-6.71066 8.47625,-6.71066 z"
       inkscape:connector-curvature="0" />
    <path
       style="opacity:1;fill:#000000;fill-opacity:1;stroke:none;stroke-width:13.5909996;stroke-miterlimit:2.29999995;stroke-dasharray:none;stroke-opacity:1"
       id="path4459"
       d="m 44.416783,883.1169 c 0.04882,0.47746 0.06978,0.95631 0.146458,1.43236 0.496572,3.08288 1.295946,6.13796 1.722245,9.22784 0.664631,4.81736 0.612435,5.74668 0.924623,10.87071 0.642468,16.06583 0.361587,32.13474 1.382042,48.19465 0.224469,7.62475 1.545533,15.23076 1.718914,22.85576 0.05971,2.62579 -0.113382,3.95414 -0.329462,6.4766 -0.179916,1.55239 -0.698443,3.08044 -0.826299,4.63534 -0.03291,0.40012 -0.255434,0.87717 0.513375,0.76902 12.122222,1.2901 24.457184,1.49026 36.716747,1.84576 55.566294,1.25502 111.184054,1.31515 166.780424,1.4826 72.28639,0.20885 144.57381,0.16456 216.85959,-0.10114 42.01549,-0.25887 84.04269,-0.30342 126.03888,-1.20197 7.40238,-0.21721 14.79685,-0.52682 22.18246,-0.90144 1.36027,-0.0689 5.66449,-0.26203 7.27056,-0.48897 0.70302,-0.0993 1.35463,-0.30606 2.03195,-0.45915 -4.01086,1.3709 -7.96552,2.80663 -12.03259,4.11264 -0.26815,0.0861 0.47387,-0.2572 0.57501,-0.43328 0.12987,-0.2261 0.12072,-0.47879 0.0862,-0.71777 -0.17135,-1.18613 -1.09976,-2.40471 -1.74129,-3.5067 -2.26492,-3.97885 -4.18119,-8.006 -5.54134,-12.13911 -1.8176,-5.06038 -4.92641,-9.88596 -7.26201,-14.85401 -1.69953,-4.21018 -3.12418,-8.46548 -4.50856,-12.72021 -1.02323,-3.32476 -1.95081,-6.6566 -2.48495,-10.02585 -0.35662,-2.57635 -0.3868,-5.16357 -0.45904,-7.74726 -0.0358,-1.87403 -0.12677,-3.73859 0.21766,-5.60271 0.34961,-1.47281 0.55246,-2.95541 0.67178,-4.44149 0.12635,-0.58135 0.16631,-1.6111 1.14381,-1.96526 13.71652,-4.96921 8.62767,-4.73461 14.96041,-4.9055 2.94877,-0.0597 5.89955,-0.0404 8.84919,-0.0241 3.54143,0.0232 7.08301,0.037 10.62446,0.01 2.1222,-0.26677 4.24527,-0.47683 6.40646,-0.57943 1.75313,-0.10679 3.51422,-0.0918 5.2731,-0.0896 3.12786,-0.0259 6.2107,-0.47816 9.3005,-0.76314 2.63956,-0.25974 5.29814,-0.47112 7.97236,-0.50615 0.36579,-0.003 0.7316,-0.006 1.0974,-0.008 0,0 -12.35992,5.58145 -12.35992,5.58145 l 0,0 c -0.36248,0.008 -0.72498,0.0161 -1.08747,0.0245 -2.57094,0.10018 -5.13534,0.24889 -7.68023,0.50268 -3.19871,0.317 -6.38872,0.77526 -9.64676,0.74944 -1.72767,0.0161 -3.45567,0.0509 -5.17695,0.14904 -2.13866,0.14878 -4.24756,0.45452 -6.406,0.4665 -3.5251,-0.0373 -7.05072,-0.0348 -10.57624,-0.0328 -2.94209,0.006 -5.91505,-0.0547 -8.82918,0.23048 -5.50402,1.16051 -0.89233,0.23016 11.59764,-4.34823 0.18174,-0.0666 -0.38713,0.10522 -0.57426,0.16587 -0.77436,0.25095 -1.088,0.53377 -1.2114,1.08364 -0.10992,1.51666 -0.34156,3.02939 -0.69386,4.53201 -0.41664,1.83411 -0.43563,3.67106 -0.40202,5.52275 -0.0371,2.57473 -0.012,5.15166 0.2631,7.72196 0.42618,3.36223 1.25698,6.68641 2.21132,10.00589 1.30684,4.25286 2.75209,8.49156 4.24332,12.71956 2.29584,4.99548 5.34412,9.84862 7.38633,14.89007 1.38151,4.06171 3.2584,8.04199 5.75815,11.89865 4.7869,7.33292 3.39698,5.3732 -11.88556,10.71652 -2.93289,0.35898 -5.81068,0.40315 -8.80067,0.46688 -6.94115,0.14782 -13.88511,0.25656 -20.83114,0.24735 -40.52256,-0.16996 -81.03849,-0.73773 -121.56279,-0.8229 -72.12314,-0.26055 -144.24762,-0.28044 -216.37145,-0.11853 -57.14167,0.11061 -114.2828,0.27755 -171.422753,0.58103 -9.449736,-0.0193 -14.937136,0.0155 -23.977682,-0.14743 -4.701021,-0.0846 -9.779837,-0.093 -14.457171,-0.58965 -0.492087,-0.0521 -0.956718,-0.17692 -1.435078,-0.26544 -0.714027,-0.38486 -1.174321,-0.4786 -1.301473,-1.09909 -0.04884,-0.23833 0.0594,-0.47931 0.111027,-0.71738 0.353192,-1.62894 1.131598,-3.20264 1.553444,-4.82475 0.495894,-2.57512 0.823486,-3.89085 0.988431,-6.58559 0.473841,-7.74095 -0.474345,-15.49678 -0.474678,-23.2367 -0.4357,-15.98908 -0.375438,-31.99523 -2.028347,-47.96048 -0.943053,-7.00003 -1.987589,-13.99901 -4.771087,-20.82991 0,0 13.570342,-4.40794 13.570342,-4.40794 z"
       inkscape:connector-curvature="0" />
    <path
       style="opacity:1;fill:#000000;fill-opacity:1;stroke:none;stroke-width:13.5909996;stroke-miterlimit:2.29999995;stroke-dasharray:none;stroke-opacity:1"
       id="path4176-8-3-8-6"
       d="m 635.29627,899.35696 c 5.44869,1.27834 10.95954,2.18779 16.44367,3.24855 2.86578,0.59088 5.71933,1.25395 8.58178,1.86443 1.53255,0.32685 2.94093,0.61801 4.39095,1.2612 0.23633,0.20242 0.53901,0.33285 0.70899,0.60726 1.39893,2.25833 -2.04969,8.23798 -2.95489,10.06828 -1.87498,3.66643 -4.12327,7.05355 -6.35921,10.44184 0,0 -8.70548,4.23321 -8.70548,4.23321 l 0,0 c 2.20719,-3.29641 4.43133,-6.59031 6.22147,-10.20784 1.12146,-2.3323 2.15344,-4.52848 2.85596,-7.06096 0.0378,-0.1363 0.33611,-1.10626 0.24552,-1.26561 -0.10931,-0.19228 -0.32682,-0.2697 -0.49023,-0.40454 -1.31816,-0.59985 -2.63847,-0.946 -4.02277,-1.31653 -2.74506,-0.73474 -5.48559,-1.49862 -8.26493,-2.0565 -5.68396,-1.0924 -11.39324,-2.01084 -17.12708,-2.70213 0,0 8.47625,-6.71066 8.47625,-6.71066 z"
       inkscape:connector-curvature="0" />
    <path
       style="fill:#0d9fc2;fill-opacity:0.62352941;fill-rule:evenodd;stroke:none;stroke-width:1px;stroke-linecap:butt;stroke-linejoin:miter;stroke-opacity:1"
       d="m 802.85714,822.3622 0,91.42858 42.85715,-48.4969 z"
       id="path4537-7-6"
       inkscape:connector-curvature="0" />
    <path
       style="fill:#32d575;fill-opacity:0.62352941;fill-rule:evenodd;stroke:none;stroke-width:1px;stroke-linecap:butt;stroke-linejoin:miter;stroke-opacity:1"
       d="m 170.85714,758.21934 0,164.28572 94.28572,-87.14286 z"
       id="path4537-5-5"
       inkscape:connector-curvature="0" />
    <text
       xml:space="preserve"
       style="font-style:normal;font-weight:normal;font-size:13.75px;line-height:125%;font-family:sans-serif;letter-spacing:0px;word-spacing:0px;fill:#000000;fill-opacity:1;stroke:none;stroke-width:1px;stroke-linecap:butt;stroke-linejoin:miter;stroke-opacity:1"
       x="221.42857"
       y="919.50507"
       id="text4521"
       sodipodi:linespacing="125%"><tspan
         sodipodi:role="line"
         id="tspan4523"
         x="221.42857"
         y="919.50507">Autoencoder</tspan></text>
    <ellipse
       style="opacity:1;fill:#a0a0a0;fill-opacity:1;stroke:none;stroke-width:13.5909996;stroke-miterlimit:2.29999995;stroke-dasharray:none;stroke-opacity:1"
       id="path4178-7"
       cx="98.571426"
       cy="424.30832"
       rx="38.57143"
       ry="35.714287" />
    <text
       xml:space="preserve"
       style="font-style:normal;font-weight:normal;font-size:13.75px;line-height:125%;font-family:sans-serif;letter-spacing:0px;word-spacing:0px;fill:#000000;fill-opacity:1;stroke:none;stroke-width:1px;stroke-linecap:butt;stroke-linejoin:miter;stroke-opacity:1"
       x="81.885361"
       y="366.57718"
       id="text4195-0-1"
       sodipodi:linespacing="125%"><tspan
         sodipodi:role="line"
         id="tspan4197-5-7"
         x="81.885361"
         y="366.57718">Noise</tspan></text>
    <path
       style="opacity:1;fill:#000000;fill-opacity:1;stroke:none;stroke-width:13.5909996;stroke-miterlimit:2.29999995;stroke-dasharray:none;stroke-opacity:1"
       id="path4174-6-1-9"
       d="m 261.53082,759.78314 c -0.89989,9.91713 0.46682,19.83684 1.66948,29.70234 1.168,9.35664 2.8132,18.67265 4.23184,28.00756 0,0 -6.63273,-6.79059 -6.63273,-6.79059 l 0,0 c -0.79408,-8.89636 -1.81717,-17.77972 -2.91523,-26.65723 -1.33231,-10.46164 -2.93465,-20.91343 -3.22227,-31.43167 0,0 6.86891,7.16959 6.86891,7.16959 z"
       inkscape:connector-curvature="0" />
    <path
       style="opacity:1;fill:#000000;fill-opacity:1;stroke:none;stroke-width:13.5909996;stroke-miterlimit:2.29999995;stroke-dasharray:none;stroke-opacity:1"
       id="path4176-8-3-2"
       d="m 277.54442,794.33807 c -1.27834,4.66259 -2.18779,9.37837 -3.24855,14.07128 -0.59088,2.45232 -1.25395,4.89418 -1.86443,7.34365 -0.32685,1.31144 -0.61801,2.51663 -1.2612,3.75745 -0.20242,0.20224 -0.33285,0.46125 -0.60726,0.6067 -2.25833,1.1971 -8.23798,-1.75397 -10.06828,-2.52857 -3.66643,-1.60447 -7.05355,-3.52839 -10.44184,-5.44174 0,0 -4.23321,-7.44951 -4.23321,-7.44951 l 0,0 c 3.29641,1.88875 6.59031,3.792 10.20784,5.32387 2.3323,0.95967 4.52848,1.84276 7.06096,2.44392 0.1363,0.0324 1.10626,0.28762 1.26561,0.2101 0.19228,-0.0935 0.2697,-0.27967 0.40454,-0.4195 0.59985,-1.12799 0.946,-2.25781 1.31653,-3.44239 0.73474,-2.34902 1.49862,-4.69416 2.0565,-7.07252 1.0924,-4.86391 2.01084,-9.74949 2.70213,-14.65608 0,0 6.71066,7.25334 6.71066,7.25334 z"
       inkscape:connector-curvature="0" />
    <path
       style="opacity:1;fill:#fa5218;fill-opacity:0.68055558;stroke:none;stroke-width:13.5909996;stroke-miterlimit:2.29999995;stroke-dasharray:none;stroke-opacity:1"
       id="path4635"
       d="m 910.03556,463.99009 c -10.33019,-2.31729 -20.76779,-4.00594 -31.27414,-5.26957 -23.00918,-2.18503 -46.15537,-2.30009 -69.24794,-2.56205 -20.32141,-0.28338 -40.64818,0.12839 -60.96468,-0.50753 -6.26655,-0.19615 -21.7097,-0.92947 -28.21669,-1.22929 -15.52687,-0.79115 -31.06449,-1.32815 -46.60835,-1.61876 -7.8983,0.16006 -15.80296,0.52944 -23.705,0.78053 -6.74656,0.21976 -13.48987,0.53123 -20.24009,0.60949 -0.79888,0.0141 -2.70666,-0.0682 -3.55331,0.33321 -0.39685,0.18814 -1.35594,1.10148 -0.9703,0.89132 5.74882,-3.13291 11.27517,-6.67201 17.09186,-9.67704 0.42133,-0.21766 -0.56351,0.7777 -0.72727,1.22275 -0.26753,0.72712 -0.36884,1.505 -0.55326,2.2575 -0.6808,9.89423 2.92333,20.02635 5.84781,29.35633 4.59873,13.72724 8.24488,27.72461 11.83482,41.7387 2.32111,9.05158 3.64905,18.28286 4.48004,27.57501 0.30557,4.54581 -0.82586,9.80874 -5.09199,12.37333 -6.87059,4.13026 -13.95979,7.88547 -20.93968,11.82821 -12.9359,3.32495 -26.23036,4.95284 -39.4993,6.2496 -10.55732,1.08362 -21.1399,1.28127 -31.73183,0.82534 -2.34996,-0.22941 -4.66396,-0.68992 -6.97218,-1.16889 0,0 17.22362,-11.95004 17.22362,-11.95004 l 0,0 c 2.11983,0.49993 4.25098,0.95144 6.42489,1.15224 10.25942,0.77847 20.52842,0.43788 30.77141,-0.51351 13.406,-1.32118 26.99525,-2.86847 39.7747,-7.33157 -31.47726,19.13847 -13.2683,9.39345 -10.09386,5.09577 1.54584,-2.09283 1.92417,-4.5838 1.8925,-7.1138 -0.39865,-9.29931 -1.49077,-18.55467 -3.62987,-27.62753 -3.2859,-14.05939 -6.65248,-28.10765 -11.58749,-41.70451 -3.08185,-9.07503 -1.50344,-4.15521 -4.13053,-12.90689 -1.6433,-5.47437 -3.49698,-10.91332 -3.23263,-16.7177 0.0571,-0.86434 0.16387,-4.06072 0.56605,-4.34581 11.31828,-8.02288 13.59691,-12.33856 23.63401,-12.08929 6.53848,-0.0298 13.07822,-0.0103 19.61437,-0.21926 8.02594,-0.29649 16.05767,-1.19749 24.08348,-0.86532 14.85556,0.97705 29.68572,2.34072 44.55512,3.12246 10.16033,0.60852 17.54023,1.11162 27.79884,1.4643 20.36404,0.70008 40.74162,0.177 61.11201,0.36752 23.61784,0.0661 47.28978,-0.17776 70.85262,1.6567 10.90633,1.20411 21.71662,3.03398 32.60701,4.3491 0,0 -17.19477,12.16895 -17.19477,12.16895 z"
       inkscape:connector-curvature="0" />
    <path
       style="opacity:1;fill:#fa5218;fill-opacity:0.68055558;stroke:none;stroke-width:13.5909996;stroke-miterlimit:2.29999995;stroke-dasharray:none;stroke-opacity:1"
       id="path4637"
       d="m 886.28299,410.02225 c -10.58158,0.58977 -21.19334,0.68975 -31.78951,0.92133 -34.99352,0.33883 -69.97574,0.0474 -104.96202,0.97699 -7.97602,0.37208 -15.95675,0.65431 -23.92807,1.11623 -30.72545,1.78045 -61.38086,4.49364 -92.12045,6.09138 -33.41915,1.73702 -45.25288,1.91946 -79.36452,2.98199 -47.94956,1.32369 -95.91308,1.56481 -143.87624,1.81999 -33.11099,0.17616 -69.60562,0.50635 -102.77161,0.41831 -15.32972,-0.0407 -30.65862,-0.23906 -45.98793,-0.35858 -47.58786,-0.86032 -95.16256,-2.28177 -142.74273,-3.46839 0,0 14.01461,-10.07002 14.01461,-10.07002 l 0,0 c 45.381,3.74398 90.83843,6.6304 136.35803,8.01254 15.02029,0.33897 30.03829,0.80232 45.06087,1.01692 82.78087,1.18254 165.58154,-0.96991 248.31653,-3.5014 36.18326,-1.59825 45.53803,-1.80069 80.90073,-4.15223 31.48981,-2.09401 62.86648,-5.41376 94.33739,-7.69748 8.1313,-0.59006 16.27745,-0.95362 24.41618,-1.43042 35.85453,-1.17938 71.73674,-1.26998 107.57682,-2.90856 11.24573,-0.60711 22.5063,-1.11901 33.71569,-2.23154 0,0 -17.15377,12.46294 -17.15377,12.46294 z"
       inkscape:connector-curvature="0" />
    <path
       style="opacity:1;fill:#fa5218;fill-opacity:0.68055558;stroke:none;stroke-width:13.5909996;stroke-miterlimit:2.29999995;stroke-dasharray:none;stroke-opacity:1"
       id="path4639"
       d="m 586.24027,551.85148 c -3.75669,3.45468 -7.78611,6.59174 -11.76185,9.78604 -2.49352,1.9611 -4.52687,4.40235 -6.81905,6.57233 0.35656,0.44646 -1.28439,0.7625 -1.15129,1.33479 0.26213,1.12712 1.72281,1.56505 2.7076,2.17275 1.41115,0.87079 7.32993,4.21556 8.39417,4.82065 6.86752,3.61285 3.41617,1.90598 10.35032,5.12813 0,0 -16.61977,10.98666 -16.61977,10.98666 l 0,0 c -6.9431,-3.34639 -3.45744,-1.61964 -10.45485,-5.18458 -1.65201,-0.84453 -3.3031,-1.69085 -4.95601,-2.53359 -2.40112,-1.22421 -9.26705,-3.55672 -8.50138,-7.57588 0.0875,-0.45945 0.4968,-0.7926 0.7452,-1.18889 2.45961,-2.1337 4.5406,-4.60317 6.97547,-6.77061 3.87419,-3.11232 7.88319,-6.06073 11.52956,-9.445 0,0 19.56188,-8.1028 19.56188,-8.1028 z"
       inkscape:connector-curvature="0" />
    <path
       style="opacity:1;fill:#fa5218;fill-opacity:0.68055558;stroke:none;stroke-width:13.5909996;stroke-miterlimit:2.29999995;stroke-dasharray:none;stroke-opacity:1"
       id="path4641"
       d="m 167.83801,407.50272 c -6.63967,2.15854 -13.30077,4.19831 -20.06433,5.98871 -9.72054,2.89868 -19.66668,4.87367 -29.61936,6.77915 -3.64177,0.68683 -4.38867,0.62403 -7.62279,1.91047 -0.7488,0.29785 -2.86661,1.47171 -2.16738,1.07109 13.20548,-7.5659 11.70241,-12.05385 18.77547,-9.07081 6.87417,2.63681 13.60597,5.59804 20.37097,8.4991 0,0 -17.26437,11.44179 -17.26437,11.44179 l 0,0 c -6.66215,-3.27235 -13.44235,-6.23162 -20.50537,-8.54479 -0.84918,-0.50532 -1.84729,-0.81875 -2.54754,-1.51597 -7.729121,-7.69562 19.50624,-14.82955 26.98016,-15.89696 9.98623,-1.8952 19.89569,-4.10308 29.64815,-6.9888 7.06011,-1.92473 13.91706,-4.38629 20.91727,-6.46939 0,0 -16.90088,12.79641 -16.90088,12.79641 z"
       inkscape:connector-curvature="0" />
    <path
       style="opacity:1;fill:#fa5218;fill-opacity:0.68055558;stroke:none;stroke-width:13.5909996;stroke-miterlimit:2.29999995;stroke-dasharray:none;stroke-opacity:1"
       id="path4646"
       d="m 283.32224,710.49241 c -4.0424,5.51889 -9.05329,10.16303 -14.03584,14.80705 -5.86267,5.48181 -20.38514,21.75541 -25.814,15.04786 -0.34357,-0.4245 -0.48409,-0.97908 -0.72614,-1.46862 -0.27716,-3.44552 1.39651,-6.69643 3.09449,-9.59086 1.40185,-2.4997 3.75958,-4.01979 5.93182,-5.74758 6.61408,-4.81233 12.64235,-7.83341 21.00247,-11.99422 0.69361,-0.34521 5.89042,1.60885 6.4861,1.82958 5.47799,2.63652 11.19768,4.90485 16.24074,8.36781 1.13436,0.77894 2.16727,1.69618 3.2509,2.54426 3.8868,3.10646 2.04024,1.54693 5.55352,4.66216 0,0 -17.46767,10.81955 -17.46767,10.81955 l 0,0 c -3.30747,-3.08243 -1.5467,-1.54008 -5.30357,-4.60265 -5.93308,-4.33726 -12.46019,-7.63661 -19.37594,-10.13475 -1.70024,-0.42338 -2.96608,-0.89117 -4.70997,-0.82351 -0.46794,0.0181 -1.77103,0.54559 -1.37256,0.2996 29.3269,-18.1043 21.20156,-13.08464 15.36339,-8.73132 -3.09077,1.95419 1.41588,-0.96483 -1.80677,1.37566 -1.60045,1.16235 -3.41929,1.99689 -4.60398,3.68292 -1.85386,2.7294 -2.33942,4.12901 -3.40647,7.14842 -0.0737,0.20867 -0.22628,0.38043 -0.33942,0.57064 -0.27158,0.0339 -0.18436,0.0563 0.095,-0.25289 -5.68476,3.34473 -11.36951,6.68945 -17.05427,10.03418 -0.55186,0.31954 1.08415,-0.67715 1.58228,-1.07529 1.41177,-1.12836 3.24796,-3.00915 4.48513,-4.22457 4.82374,-4.39588 9.95712,-8.67922 13.49069,-14.23788 0,0 19.4401,-8.30555 19.4401,-8.30555 z"
       inkscape:connector-curvature="0" />
    <path
       style="opacity:1;fill:#b40880;fill-opacity:0.68055558;stroke:none;stroke-width:13.5909996;stroke-miterlimit:2.29999995;stroke-dasharray:none;stroke-opacity:1"
       id="path4648"
       d="m 449.45016,842.54479 c -33.69662,-2.56291 -67.552,-2.7106 -101.32899,-3.18572 -66.50254,-0.59918 -133.00913,-0.48762 -199.51358,-0.40458 -34.97863,0.094 -69.955652,0.4022 -104.929019,1.00815 0,0 13.073409,-9.49856 13.073409,-9.49856 l 0,0 c 34.051482,0.61347 68.10698,0.90333 102.16393,1.00115 66.72189,0.098 133.44446,0.20862 200.16607,-0.0642 35.78948,-0.25719 71.57791,-0.83853 107.3667,-0.99179 0,0 -16.99852,12.13551 -16.99852,12.13551 z"
       inkscape:connector-curvature="0" />
    <path
       style="opacity:1;fill:#b40880;fill-opacity:0.68055558;stroke:none;stroke-width:13.5909996;stroke-miterlimit:2.29999995;stroke-dasharray:none;stroke-opacity:1"
       id="path4652"
       d="m 61.604124,817.84365 c -3.701624,3.04711 -7.559519,6.01703 -10.012279,10.20586 -0.09659,0.37896 -0.316883,0.74675 -0.289761,1.13689 0.129826,1.86748 9.334208,3.84542 10.793182,4.17364 4.725667,1.08104 9.363196,2.40016 13.869984,4.1769 0,0 -17.424493,11.6648 -17.424493,11.6648 l 0,0 c -4.31128,-1.78556 -8.820584,-2.96658 -13.322849,-4.17179 -3.543783,-0.88792 -11.616794,-2.19694 -12.753333,-6.49905 -0.160452,-0.60736 0.02418,-1.25615 0.03627,-1.88422 2.138806,-4.54833 5.804232,-7.68236 9.558738,-10.91424 0,0 19.544544,-7.88879 19.544544,-7.88879 z"
       inkscape:connector-curvature="0" />
    <path
       style="opacity:1;fill:#f95217;fill-opacity:0.68235296;stroke:none;stroke-width:13.5909996;stroke-miterlimit:2.29999995;stroke-dasharray:none;stroke-opacity:1"
       id="path4658"
       d="m 896.94831,807.09888 c -16.04412,0.26162 -32.09017,0.32137 -48.13595,0.39226 -24.95349,-0.13227 -49.8973,0.43904 -74.84476,0.84752 -26.22997,0.38924 -52.4473,1.32078 -78.67708,1.75397 -28.94731,0.19165 -57.89132,0.43521 -86.83672,0.84516 -30.70571,0.27046 -61.35044,1.93835 -91.97499,4.04309 -23.69245,1.30428 -47.30823,3.56178 -71.01711,4.57377 -22.77742,0.79647 -45.56854,1.028 -68.35782,1.14504 -13.61554,-0.012 -27.25733,0.10175 -40.84331,-0.93769 -3.65915,-0.27996 -14.14989,-1.33701 -17.95591,-1.71344 -11.53744,-1.67166 -23.32237,-1.15807 -34.82041,-3.03959 -6.01383,-0.87013 -9.24405,-4.63796 -12.62271,-9.32028 -3.77581,-6.72479 -5.84053,-14.30325 -8.3289,-21.57997 -2.50916,-6.6797 -4.84247,-13.42191 -7.06895,-20.20136 -1.07509,-3.36974 -1.79329,-6.84685 -1.97252,-10.3798 -0.0785,-2.49695 -0.24656,-4.98162 0.22552,-7.4471 0.43909,-1.86171 0.70414,-3.74569 1.26016,-5.57784 0,0 19.10357,-9.02407 19.10357,-9.02407 l 0,0 c -0.56298,1.79354 -1.07869,3.54912 -1.32295,5.4268 -0.60687,2.30058 -0.68019,4.58672 -0.54886,6.97643 0.13985,3.40509 0.47405,6.79712 1.41778,10.08894 1.90277,6.87837 4.23082,13.61958 6.71931,20.30595 2.43933,7.06116 4.47203,14.41119 8.25853,20.89088 3.11414,4.04404 6.45171,7.26722 11.70514,8.05896 11.07311,2.09328 22.47175,1.98607 33.60395,3.7278 5.54379,0.60922 12.15025,1.37837 17.68675,1.80454 13.48558,1.03803 27.03158,1.01607 40.54716,1.00251 22.71687,-0.0548 45.44291,-0.0982 68.14267,-1.08613 23.5336,-1.19314 47.0188,-3.11434 70.55487,-4.27242 30.47894,-1.79471 60.97002,-3.17897 91.50425,-3.59432 29.16782,-0.51513 58.33286,-1.11733 87.50508,-1.33461 26.23992,-0.45454 52.47059,-1.22646 78.70809,-1.78237 25.0141,-0.56556 50.02657,-0.82824 75.04629,-0.97605 16.77968,-0.3046 33.57555,-0.60149 50.3113,-1.94707 0,0 -16.97147,12.33049 -16.97147,12.33049 z"
       inkscape:connector-curvature="0" />
    <path
       style="opacity:1;fill:#f95217;fill-opacity:0.68235296;stroke:none;stroke-width:13.5909996;stroke-miterlimit:2.29999995;stroke-dasharray:none;stroke-opacity:1"
       id="path4660"
       d="m 73.800381,901.2877 c 1.150881,8.63494 1.855889,17.31857 2.915225,25.96304 1.699871,10.05137 3.441276,20.09546 4.603584,30.2261 0.895754,2.83426 -0.185729,7.7505 1.213186,10.3587 0.844563,1.57464 2.115635,1.61997 3.706085,2.21142 1.540214,0.28526 3.068142,0.64752 4.620642,0.85579 10.331257,1.38597 20.892347,1.51415 31.287067,1.84622 21.34897,0.68202 17.76617,0.52206 40.36453,0.80824 48.78131,0.26759 97.56283,0.33592 146.3444,0.1238 36.10721,0.009 72.21427,0.7452 108.28116,2.45207 8.66265,-0.1878 17.11544,1.75883 25.67375,2.60405 15.73104,0.92798 31.50562,0.97775 47.25965,1.11181 26.09309,0.13901 52.18678,0.17602 78.28007,0.0854 18.08511,-0.0684 36.16979,-0.23573 54.25151,-0.59527 1.83803,-0.13745 5.16493,-0.22049 7.08483,-0.88712 0.68237,-0.23693 2.50804,-1.43386 1.87171,-1.09203 -5.52405,2.96753 -10.80966,6.41406 -16.53594,8.96966 -0.67926,0.30315 0.73245,-1.30694 0.95596,-2.01641 0.28442,-0.90282 0.37102,-1.85641 0.55654,-2.78461 1.34789,-8.92559 -0.29074,-17.66311 -2.07358,-26.37898 -1.7956,-7.79138 -3.49618,-15.61355 -5.52357,-23.34881 -0.73628,-3.4331 -2.13072,-6.52353 -3.75407,-9.59591 -1.24962,-2.10102 -2.18501,-4.38217 -2.98567,-6.68727 -0.59372,-8.58039 -0.52427,-2.23377 18.81654,-12.98746 0.68371,-0.38014 1.56524,-0.0212 2.34561,-0.0757 1.11593,-0.078 2.22694,-0.21509 3.34051,-0.32165 7.18106,-0.68721 2.83534,-0.25032 11.01769,-1.11189 2.80447,-0.30557 5.61385,-0.56903 8.41341,-0.9167 38.06611,-4.72727 -20.48318,2.2784 21.09077,-2.94235 13.50389,-1.69578 27.05349,-2.67902 40.62597,-3.60998 29.08865,-1.28209 57.98777,-4.61049 86.84215,-8.35109 4.86403,-0.71314 9.73027,-1.41135 14.59208,-2.13943 10.12246,-1.5159 17.46349,-2.76316 27.57964,-4.04898 12.63269,-1.60568 25.29854,-2.65364 37.99482,-3.57682 16.8423,-1.12449 33.72077,-1.47714 50.59049,-1.92774 0,0 -16.25574,11.82436 -16.25574,11.82436 l 0,0 c -16.35082,-0.2768 -32.71004,0.0138 -49.03828,0.94434 -10.25476,0.69343 -14.03572,0.86372 -24.37979,1.91886 -18.43926,1.8809 -36.72438,4.91169 -55.07745,7.45188 -14.69531,1.91601 -29.37858,3.91679 -44.13684,5.29969 -11.33219,1.06186 -17.12339,1.36703 -28.48302,2.12024 -4.80839,0.31882 -9.61675,0.638 -14.42513,0.957 -12.06268,0.91817 -16.29204,1.11951 -28.22637,2.49836 -14.57329,1.68374 -29.0055,4.32823 -43.5395,6.29274 -2.85562,0.38218 -8.56061,1.12997 -11.62241,1.59277 -1.1781,0.17807 -2.36583,0.31461 -3.52634,0.58455 -0.74885,0.17419 -2.81957,1.17532 -2.18339,0.74358 12.77999,-8.67291 22.73783,-13.59515 16.23038,-10.36471 0.50178,2.24211 1.60876,4.38672 2.71789,6.38528 1.6132,3.29153 3.06636,6.55762 3.59119,10.23766 1.7943,7.86425 3.26101,15.80487 5.11433,23.6581 1.80168,8.83235 3.66815,17.68356 2.86007,26.76427 -0.0202,0.21825 -0.37197,5.32622 -0.84417,5.68308 -13.64403,10.3112 -15.1892,13.04574 -27.8087,13.00029 -17.54359,-0.36604 -35.09054,-0.51804 -52.63774,-0.57674 -26.18792,-0.0761 -52.37597,-0.005 -78.56368,0.11763 -16.40061,0.10246 -32.81039,0.48515 -49.20776,0.0569 -8.06165,-0.78405 -15.84128,-3.52776 -24.00495,-3.73075 -35.00877,-3.37666 -70.19518,-4.38055 -105.35593,-4.41292 -48.93058,-0.15214 -97.85986,0.0515 -146.79026,0.1928 -7.40999,0.0449 -14.81999,0.0899 -22.22998,0.13481 -6.60824,0.0841 -13.21614,0.20317 -19.82474,0.25235 -11.01808,0.082 -22.418295,0.50228 -33.410973,-0.71499 -1.785986,-0.19776 -3.535816,-0.64299 -5.303723,-0.96448 -2.509134,-1.23811 -3.583743,-1.20185 -4.877473,-3.65455 -1.619462,-3.07024 -0.231858,-7.58693 -0.97928,-10.8857 -0.792009,-10.20958 -2.212242,-20.3409 -4.091961,-30.40844 -1.234037,-8.44598 -1.848547,-17.02463 -4.022599,-25.30445 0,0 18.68757,-9.91388 18.68757,-9.91388 z"
       inkscape:connector-curvature="0" />
    <path
       style="opacity:1;fill:#dd6b43;fill-opacity:0.68235294;stroke:none;stroke-width:13.5909996;stroke-miterlimit:2.29999995;stroke-dasharray:none;stroke-opacity:1"
       id="path4662"
       d="m 76.305391,893.21415 c -3.754198,5.47718 -6.936247,11.30382 -10.506295,16.89851 -0.571264,0.89515 -1.142528,1.79029 -1.713792,2.68543 0,0 -18.844721,8.26087 -18.844721,8.26087 l 0,0 c 0.611851,-0.90664 1.223702,-1.81327 1.835553,-2.71991 3.513005,-5.39541 6.682656,-10.96211 9.878896,-16.54854 0,0 19.350359,-8.57636 19.350359,-8.57636 z"
       inkscape:connector-curvature="0" />
    <path
       style="opacity:1;fill:#f95216;fill-opacity:0.68235296;stroke:none;stroke-width:13.5909996;stroke-miterlimit:2.29999995;stroke-dasharray:none;stroke-opacity:1"
       id="path4664"
       d="m 78.882359,889.56711 c 8.451592,2.10434 17.008153,3.77026 25.582111,5.28735 0,0 -16.15178,11.30738 -16.15178,11.30738 l 0,0 c -8.871011,-1.5756 -17.725234,-3.25657 -26.634557,-4.60672 0,0 17.204226,-11.98801 17.204226,-11.98801 z"
       inkscape:connector-curvature="0" />
  </g>
</svg>
